<svg width="102" height="17" viewBox="0 0 102 17" fill="none" xmlns="http://www.w3.org/2000/svg">
<path d="M0.695007 0.928999H4.11861V16.2134H0.695007V0.928999Z" fill="white"/>
<path d="M15.0567 3.57565C13.4619 3.57565 12.3061 4.02411 11.5892 4.92104C10.8869 5.80325 10.5358 7.0163 10.5358 8.56019C10.5358 9.31007 10.6236 9.99379 10.7991 10.6113C10.9747 11.2142 11.2381 11.7362 11.5892 12.1773C11.9403 12.6184 12.3793 12.9639 12.906 13.2139C13.4327 13.4491 14.0472 13.5668 14.7495 13.5668C15.1299 13.5668 15.4517 13.5594 15.7151 13.5447C15.9931 13.53 16.2345 13.5006 16.4393 13.4565V8.14113H19.8629V15.7062C19.4532 15.8679 18.7949 16.037 17.8878 16.2134C16.9806 16.4046 15.8614 16.5002 14.53 16.5002C13.3888 16.5002 12.35 16.3237 11.4136 15.9708C10.4919 15.6179 9.70184 15.1033 9.04346 14.4269C8.38507 13.7506 7.873 12.9198 7.50723 11.9347C7.15609 10.9495 6.98052 9.8247 6.98052 8.56019C6.98052 7.28097 7.17803 6.14879 7.57306 5.16365C7.9681 4.1785 8.50943 3.34775 9.19708 2.67138C9.88473 1.98031 10.6894 1.45833 11.6112 1.10544C12.5475 0.752555 13.5424 0.576111 14.5958 0.576111C15.3127 0.576111 15.9565 0.627574 16.5271 0.730499C17.1123 0.818721 17.6098 0.928999 18.0194 1.06133C18.4437 1.17896 18.7875 1.30394 19.0509 1.43627C19.3289 1.56861 19.5264 1.67153 19.6434 1.74505L18.6559 4.50198C18.1877 4.25202 17.6463 4.03882 17.0319 3.86238C16.432 3.67123 15.7736 3.57565 15.0567 3.57565Z" fill="white"/>
<path d="M27.1962 13.5888C27.679 13.5888 28.074 13.5521 28.3813 13.4786C28.7031 13.3903 28.9592 13.2801 29.1494 13.1477C29.3396 13.0007 29.4713 12.8316 29.5444 12.6404C29.6176 12.4493 29.6541 12.2361 29.6541 12.0008C29.6541 11.5009 29.42 11.0892 28.9519 10.7657C28.4837 10.4275 27.679 10.0673 26.5378 9.68501C26.0403 9.50857 25.5429 9.31007 25.0455 9.08952C24.548 8.85426 24.1018 8.56754 23.7067 8.22935C23.3117 7.87647 22.9898 7.45741 22.7411 6.97219C22.4924 6.47227 22.368 5.86942 22.368 5.16365C22.368 4.45787 22.4997 3.82562 22.7631 3.26688C23.0264 2.69344 23.3995 2.20821 23.8823 1.81122C24.3651 1.41422 24.9504 1.11279 25.638 0.906944C26.3256 0.686389 27.1011 0.576111 27.9643 0.576111C28.9884 0.576111 29.8736 0.686389 30.6198 0.906944C31.3659 1.1275 31.9804 1.37011 32.4632 1.63477L31.4757 4.34759C31.0514 4.12704 30.5759 3.93589 30.0492 3.77415C29.5371 3.59771 28.9153 3.50949 28.1838 3.50949C27.3644 3.50949 26.7719 3.62712 26.4061 3.86238C26.055 4.08293 25.8794 4.42846 25.8794 4.89898C25.8794 5.17835 25.9452 5.41361 26.0769 5.60475C26.2086 5.7959 26.3915 5.97235 26.6256 6.13409C26.8743 6.28112 27.1523 6.42081 27.4595 6.55314C27.7814 6.67077 28.1325 6.79575 28.5129 6.92808C29.303 7.22215 29.9907 7.51623 30.5759 7.8103C31.1611 8.08967 31.6439 8.4205 32.0243 8.8028C32.4194 9.18509 32.712 9.63355 32.9022 10.1482C33.0924 10.6628 33.1875 11.2877 33.1875 12.0229C33.1875 13.4491 32.69 14.5593 31.6951 15.3533C30.7002 16.1326 29.2006 16.5222 27.1962 16.5222C26.5232 16.5222 25.916 16.4781 25.3746 16.3899C24.8333 16.3164 24.3505 16.2208 23.9262 16.1032C23.5165 15.9855 23.1581 15.8605 22.8508 15.7282C22.5582 15.5959 22.3095 15.4709 22.1047 15.3533L23.0703 12.6184C23.5239 12.8684 24.0798 13.0963 24.7382 13.3021C25.4112 13.4933 26.2305 13.5888 27.1962 13.5888Z" fill="white"/>
<path d="M46.6734 0.928999V3.86238H42.0866V16.2134H38.663V3.86238H34.0763V0.928999H46.6734Z" fill="white"/>
<path d="M54.8211 16.5222C53.753 16.5222 52.8313 16.3752 52.0558 16.0811C51.2804 15.7723 50.6367 15.3533 50.1246 14.8239C49.6271 14.2799 49.254 13.6403 49.0053 12.9051C48.7712 12.1552 48.6542 11.3318 48.6542 10.4349V0.928999H52.0778V10.1482C52.0778 10.7657 52.1436 11.2951 52.2753 11.7362C52.4216 12.1626 52.6118 12.5155 52.8459 12.7948C53.0946 13.0595 53.3872 13.2506 53.7237 13.3683C54.0749 13.4859 54.4553 13.5447 54.8649 13.5447C55.6989 13.5447 56.3719 13.2874 56.884 12.7728C57.4107 12.2582 57.674 11.3833 57.674 10.1482V0.928999H61.0977V10.4349C61.0977 11.3318 60.9733 12.1552 60.7246 12.9051C60.4758 13.655 60.0954 14.302 59.5834 14.846C59.0713 15.3753 58.4202 15.787 57.6302 16.0811C56.8401 16.3752 55.9037 16.5222 54.8211 16.5222Z" fill="white"/>
<path d="M67.8139 13.4124C67.9748 13.4271 68.1577 13.4418 68.3625 13.4565C68.582 13.4565 68.838 13.4565 69.1306 13.4565C70.8424 13.4565 72.108 13.0227 72.9273 12.1552C73.7613 11.2877 74.1782 10.0894 74.1782 8.56019C74.1782 6.95749 73.7832 5.74444 72.9931 4.92104C72.2031 4.09763 70.9522 3.68593 69.2404 3.68593C69.0063 3.68593 68.7649 3.69328 68.5161 3.70799C68.2674 3.70799 68.0333 3.72269 67.8139 3.7521V13.4124ZM77.7116 8.56019C77.7116 9.88351 77.5067 11.0377 77.0971 12.0229C76.6874 13.008 76.1022 13.8241 75.3414 14.471C74.5952 15.118 73.6808 15.6032 72.5981 15.9267C71.5154 16.2502 70.3011 16.4119 68.9551 16.4119C68.3406 16.4119 67.6236 16.3825 66.8043 16.3237C65.985 16.2796 65.1803 16.1767 64.3903 16.0149V1.1275C65.1803 0.980462 65.9996 0.884888 66.8482 0.840777C67.7114 0.781962 68.4503 0.752555 69.0648 0.752555C70.3669 0.752555 71.5447 0.899592 72.5981 1.19366C73.6662 1.48774 74.5806 1.9509 75.3414 2.58316C76.1022 3.21541 76.6874 4.02411 77.0971 5.00926C77.5067 5.9944 77.7116 7.17804 77.7116 8.56019Z" fill="white"/>
<path d="M80.5713 0.928999H83.9949V16.2134H80.5713V0.928999Z" fill="white"/>
<path d="M90.3901 8.56019C90.3901 9.31007 90.4779 9.98644 90.6534 10.5893C90.8436 11.1921 91.107 11.7141 91.4435 12.1552C91.7946 12.5816 92.2189 12.9125 92.7164 13.1477C93.2138 13.383 93.7844 13.5006 94.4282 13.5006C95.0573 13.5006 95.6206 13.383 96.118 13.1477C96.6301 12.9125 97.0544 12.5816 97.3909 12.1552C97.742 11.7141 98.0054 11.1921 98.181 10.5893C98.3712 9.98644 98.4663 9.31007 98.4663 8.56019C98.4663 7.8103 98.3712 7.13393 98.181 6.53108C98.0054 5.91353 97.742 5.39155 97.3909 4.96515C97.0544 4.52404 96.6301 4.18585 96.118 3.9506C95.6206 3.71534 95.0573 3.59771 94.4282 3.59771C93.7844 3.59771 93.2138 3.72269 92.7164 3.97265C92.2189 4.20791 91.7946 4.54609 91.4435 4.9872C91.107 5.41361 90.8436 5.93559 90.6534 6.55314C90.4779 7.15599 90.3901 7.825 90.3901 8.56019ZM102 8.56019C102 9.86881 101.802 11.023 101.407 12.0229C101.027 13.008 100.5 13.8388 99.8269 14.5152C99.1539 15.1768 98.3492 15.6767 97.4129 16.0149C96.4911 16.3531 95.4962 16.5222 94.4282 16.5222C93.3894 16.5222 92.4091 16.3531 91.4874 16.0149C90.5657 15.6767 89.761 15.1768 89.0733 14.5152C88.3857 13.8388 87.8443 13.008 87.4493 12.0229C87.0543 11.023 86.8568 9.86881 86.8568 8.56019C86.8568 7.25156 87.0616 6.10468 87.4713 5.11954C87.8809 4.11969 88.4296 3.28158 89.1172 2.60521C89.8195 1.92885 90.6242 1.42157 91.5313 1.08339C92.453 0.745203 93.4187 0.576111 94.4282 0.576111C95.467 0.576111 96.4472 0.745203 97.369 1.08339C98.2907 1.42157 99.0954 1.92885 99.783 2.60521C100.471 3.28158 101.012 4.11969 101.407 5.11954C101.802 6.10468 102 7.25156 102 8.56019Z" fill="white"/>
</svg>
